<svg preserveAspectRatio="xMidYMid meet" data-bbox="20 55.9 160 88.2" viewBox="20 55.9 160 88.2" height="200" width="200" xmlns="http://www.w3.org/2000/svg" data-type="color" role="presentation" aria-hidden="true" aria-label="">
    <g>
        <path fill="#FBB615" d="M117.7 55.9v56.9H61V55.9h56.7z" data-color="1"></path>
        <path fill="#010203" d="M146.4 102.6v1.2h-6.9v-1.2h6.9z" data-color="2"></path>
        <path d="M180 126.7h-5.8c-1.3 0-2.3-1.1-2.3-2.3v-7c0-1.3 1.1-2.3 2.3-2.3h5.8v11.6z" fill="#010203" data-color="2"></path>
        <path d="M177.7 133.6h-20.8v-.6c0-5.4-4.4-9.8-9.8-9.8s-9.8 4.4-9.8 9.8v.6h-7V72.2c0-1.3 1-2.3 2.3-2.3h24c1.4 0 2.8.8 3.5 2l19.3 25.3c.4.6.6 1.4.6 2.1v32.1c0 1.2-1 2.2-2.3 2.2zm-19.6-1.2h19.6c.6 0 1.1-.5 1.1-1.1V99.2c0-.5-.1-1-.4-1.5l-19.3-25.3c-.6-.9-1.5-1.5-2.5-1.5h-24c-.6 0-1.1.5-1.1 1.1v60.3h4.6c.3-5.8 5.1-10.4 11-10.4 5.9.1 10.7 4.7 11 10.5z" fill="#010203" data-color="2"></path>
        <path d="M147.1 144.1c-6.1 0-11-4.9-11-11s4.9-11 11-11 11 5 11 11-4.9 11-11 11zm0-15.7c-2.5 0-4.6 2.1-4.6 4.6s2.1 4.6 4.6 4.6 4.6-2.1 4.6-4.6c0-2.5-2.1-4.6-4.6-4.6z" fill="#010203" data-color="2"></path>
        <path d="M131.5 133.6H74.8v-.6c0-5.4-4.4-9.8-9.8-9.8s-9.8 4.4-9.8 9.8v.6h-5.8c-1.3 0-2.3-1.1-2.3-2.3v-17.4c0-1.3 1-2.3 2.3-2.3h82v22h.1zM76 132.4h54.3v-19.7H49.5c-.6 0-1.1.5-1.1 1.1v17.4c0 .6.5 1.1 1.1 1.1h4.6c.3-5.8 5.1-10.4 11-10.4 5.8.1 10.6 4.7 10.9 10.5z" fill="#010203" data-color="2"></path>
        <path d="M65 144.1c-6.1 0-11-4.9-11-11s4.9-11 11-11 11 5 11 11-4.9 11-11 11zm0-15.7c-2.5 0-4.6 2.1-4.6 4.6s2.1 4.6 4.6 4.6 4.6-2.1 4.6-4.6-2-4.6-4.6-4.6z" fill="#010203" data-color="2"></path>
        <path d="M169.6 97.7h-34.1V75.1H156l15.6 19c.5.8.5 1.7.1 2.4-.5.7-1.3 1.2-2.1 1.2zm-32.9-1.2h32.9c.4 0 .8-.2 1-.6s.2-.8 0-1.1l-15.2-18.5h-18.7v20.2z" fill="#010203" data-color="2"></path>
        <path d="M97.4 82.8H81.2V55.9h16.3l-.1 26.9z" fill="#010203" data-color="2"></path>
        <path fill="#010203" d="M47.7 76.8V78H26.9v-1.2h20.8z" data-color="2"></path>
        <path fill="#010203" d="M40.8 90.7v1.2H20v-1.2h20.8z" data-color="2"></path>
    </g>
</svg>